# xmcd
#
# Track frame offsets:
#  150
#  14247
#  29270
#  40495
#  52947
#  61747
#  74087
#  84147
#  94417
#  110675
#  123402
#  135275
#  151907
#  162855
#  171932
#  184722
#  193397
#  207257
#  218050
#  227465
#  238715
#  250547
#  263115
#  274180
#  285820
#  295820
#  307580
#  318380
#  330667
#  342457
#
# Disc length: 4722 seconds
#
# Revision: 1
# Processed by: cddbd v1.5.2PL0 Copyright (c) Steve Scherf et al.
# Submitted via: Collectorz.com Music Collector 6.9
#
DISCID=ad12701e
DTITLE=Carl Perkins - The Unissued
DYEAR=1997
DGENRE=Rock and Roll
TTITLE0=Put Your Cat Clothes on
TTITLE1=Dixie Fried
TTITLE2=Pink Pedal Pushers
TTITLE3=That's Alright
TTITLE4=Lend Me Your Comb
TTITLE5=Put Your Cat Clothes on
TTITLE6=Everybody's Trying To Be My Baby
TTITLE7=Honky Tonk Babe
TTITLE8=I'm Sorry I'm Not Sorry
TTITLE9=Put Your Cat Clothes on
TTITLE10=Her Love Rubbed Off
TTITLE11=Caldonia
TTITLE12=You Can Do No Wrong
TTITLE13=Sweethearts Or Strangers
TTITLE14=Put Your Cat Clothes on
TTITLE15=Everybody's Trying To Be My Baby
TTITLE16=Your True Love
TTITLE17=Honky Tonk Gal
TTITLE18=You Can Do No Wrong
TTITLE19=I'm Sorry I'm Not Sorry
TTITLE20=Pink Pedal Pushers
TTITLE21=Put Your Cat Clothes on
TTITLE22=Dixie Fried
TTITLE23=That's Alright
TTITLE24=Be Honest with Me
TTITLE25=Sure To Fall
TTITLE26=I Care
TTITLE27=Lonely Street
TTITLE28=Sure To Fall
TTITLE29=Somebody Tell Me
EXTD=
EXTT0=
EXTT1=
EXTT2=
EXTT3=
EXTT4=
EXTT5=
EXTT6=
EXTT7=
EXTT8=
EXTT9=
EXTT10=
EXTT11=
EXTT12=
EXTT13=
EXTT14=
EXTT15=
EXTT16=
EXTT17=
EXTT18=
EXTT19=
EXTT20=
EXTT21=
EXTT22=
EXTT23=
EXTT24=
EXTT25=
EXTT26=
EXTT27=
EXTT28=
EXTT29=
PLAYORDER=
